# xmcd
#
# Track frame offsets:
#	150
#	12837
#	31986
#	48452
#	68186
#	85498
#	97034
#	115528
#	129672
#	146243
#	165301
#	180753
#	199979
#	220515
#	239413
#	255115
#	272212
#	287363
#	300010
#
# Disc length: 4164 seconds
#
# Revision: 1
# Processed by: cddbd v1.5.2PL0 Copyright (c) Steve Scherf et al.
# Submitted via: EasyCDDAExtractor 9.0.0.1
#
DISCID=f9104213
DTITLE=Whiskey River - Sposób na codziennosc
DYEAR=1994
DGENRE=Country
TTITLE0=Piosenka o butach
TTITLE1=Piosenka o moim domu
TTITLE2=Badz wierny
TTITLE3=Zasnij
TTITLE4=Na autostradzie
TTITLE5=Kiedy ide znowu
TTITLE6=Ohio
TTITLE7=Zlotowlosa
TTITLE8=Wróc na ziemie
TTITLE9=Bialy dom i sw. Jan
TTITLE10=Sposób na codziennosc
TTITLE11=Umówmy sie na wiosne
TTITLE12=Mój stary Harley
TTITLE13=Jeszcze jedna modlitwa
TTITLE14=Pod "Osiemdziesiatym"
TTITLE15=Dziwny gosc
TTITLE16=Nocna dama
TTITLE17=Powiedz... jestem
TTITLE18=Piosenka o butach
EXTD=
EXTT0=
EXTT1=
EXTT2=
EXTT3=
EXTT4=
EXTT5=
EXTT6=
EXTT7=
EXTT8=
EXTT9=
EXTT10=
EXTT11=
EXTT12=
EXTT13=
EXTT14=
EXTT15=
EXTT16=
EXTT17=
EXTT18=
PLAYORDER=
